<svg width="680" height="240" viewBox="0 0 680 240" xmlns="http://www.w3.org/2000/svg">
<rect x="0" y="0" width="680" height="240" rx="16" fill="#f5f0e8"/>
<circle cx="560" cy="70" r="38" fill="#e07a52" opacity="0.9"/>
<g stroke="#e07a52" stroke-width="3" stroke-linecap="round" opacity="0.6">
<line x1="560" y1="14" x2="560" y2="2"/>
<line x1="600" y1="30" x2="609" y2="21"/>
<line x1="616" y1="70" x2="628" y2="70"/>
<line x1="600" y1="110" x2="609" y2="119"/>
<line x1="520" y1="30" x2="511" y2="21"/>
</g>
<g fill="#4a5e3a">
<ellipse cx="90" cy="105" rx="16" ry="40"/>
</g>
<g fill="#3d5230">
<ellipse cx="130" cy="120" rx="13" ry="34"/>
</g>
<g fill="#4a5e3a">
<ellipse cx="165" cy="110" rx="15" ry="42"/>
</g>
<rect x="0" y="170" width="680" height="70" fill="#e8dfc9"/>
<rect x="0" y="170" width="680" height="70" fill="#e0d5ba" opacity="0.5"/>
<ellipse cx="340" cy="205" rx="300" ry="26" fill="#d4c9a8" opacity="0.5"/>
<circle cx="300" cy="200" r="22" fill="#c8ccd3"/>
<circle cx="300" cy="200" r="22" fill="none" stroke="#9a9ea6" stroke-width="1"/>
<ellipse cx="291" cy="192" rx="7" ry="4" fill="#eef0f3" opacity="0.7"/>
<path d="M300 178 A22 22 0 0 1 318 210" fill="none" stroke="#b0b4bc" stroke-width="1" opacity="0.6"/>
<circle cx="350" cy="210" r="26" fill="#dfe2e7"/>
<circle cx="350" cy="210" r="26" fill="none" stroke="#a8acb4" stroke-width="1"/>
<ellipse cx="339" cy="199" rx="8" ry="5" fill="#fff" opacity="0.75"/>
<path d="M350 184 A26 26 0 0 1 372 222" fill="none" stroke="#c4c8cf" stroke-width="1" opacity="0.6"/>
<circle cx="326" cy="222" r="7" fill="#f5c518"/>
<circle cx="326" cy="222" r="7" fill="none" stroke="#c99a00" stroke-width="1"/>
<g opacity="0.85">
<circle cx="455" cy="195" r="17" fill="#d0d4db"/>
<circle cx="455" cy="195" r="17" fill="none" stroke="#a0a4ac" stroke-width="1"/>
<ellipse cx="449" cy="189" rx="5" ry="3" fill="#eef0f3" opacity="0.7"/>
</g>
<text x="200" y="60" font-family="Georgia, serif" font-size="26" font-weight="700" fill="#2d3d22">Allez, on tire ou on pointe?</text>
<text x="200" y="88" font-family="Inter, sans-serif" font-size="14" fill="#7a6e5e">The southern art of getting closest to the cochonnet.</text>
</svg>
